<svg xmlns="http://www.w3.org/2000/svg" width="174" height="56" viewBox="0 0 174 56" fill="none"><g opacity="0.8" clip-path="url(#clip0_10591_1983)"><path d="M26.263 14.2682C23.981 14.2682 22.125 12.4122 22.125 10.1302C22.125 7.84819 23.981 5.99219 26.263 5.99219C28.545 5.99219 30.401 7.84819 30.401 10.1302C30.401 12.4122 28.545 14.2682 26.263 14.2682ZM26.263 8.39219C25.305 8.39219 24.525 9.17219 24.525 10.1302C24.525 11.0882 25.305 11.8682 26.263 11.8682C27.221 11.8682 28.001 11.0882 28.001 10.1302C28.001 9.17219 27.221 8.39219 26.263 8.39219Z" fill="white"></path><path d="M28.0016 1.26562C13.2596 1.26562 1.26562 13.2596 1.26562 28.0016C1.26562 29.5076 1.39163 30.9836 1.63163 32.4236C1.76763 33.2356 1.93963 34.0376 2.14763 34.8236C2.47763 36.0736 2.89563 37.2876 3.39563 38.4596C3.74563 39.2816 4.13762 40.0816 4.56562 40.8596C4.83162 41.3416 5.11162 41.8156 5.40562 42.2796C5.86162 42.9976 6.34962 43.6936 6.87162 44.3636C6.90363 44.4076 6.93762 44.4516 6.97162 44.4936C7.63363 45.3356 8.34563 46.1376 9.10162 46.8936C11.9356 49.7296 15.4036 51.9336 19.2696 53.2736C20.0456 53.5416 20.8356 53.7756 21.6416 53.9736C23.6816 54.4736 25.8116 54.7376 28.0016 54.7376C28.1156 54.7376 28.2276 54.7376 28.3416 54.7356C29.1496 54.7256 29.9516 54.6796 30.7416 54.5976C39.7376 53.6776 47.4276 48.2796 51.5376 40.6756C51.9176 39.9736 52.2676 39.2516 52.5836 38.5136C53.4616 36.4696 54.0916 34.2956 54.4356 32.0276C54.5576 31.2196 54.6436 30.3996 54.6916 29.5676C54.7216 29.0496 54.7376 28.5276 54.7376 28.0016C54.7376 13.2596 42.7436 1.26562 28.0016 1.26562ZM6.03163 38.4596C5.47363 37.2956 5.00763 36.0816 4.63963 34.8236H28.2536C27.6696 35.3396 27.1096 35.8796 26.5756 36.4456C26.0076 37.0416 25.4696 37.6656 24.9576 38.3116C24.9196 38.3616 24.8816 38.4096 24.8436 38.4596H6.03163ZM19.5296 26.4996L18.3496 24.8336C18.2076 24.6336 17.9116 24.6336 17.7696 24.8336L16.5896 26.4996L12.3916 32.4216H9.61763L18.2876 20.1876C18.3076 20.1576 18.3516 20.1576 18.3736 20.1876L27.0436 32.4216H23.7296L19.5316 26.4976L19.5296 26.4996ZM20.7856 32.4236H15.3316L18.0176 28.6336C18.0376 28.6056 18.0796 28.6056 18.1016 28.6336L20.7856 32.4236ZM21.3076 44.4936C20.9776 45.2756 20.6836 46.0756 20.4296 46.8936C20.0336 48.1616 19.7296 49.4716 19.5256 50.8136C17.0236 49.8816 14.7156 48.5496 12.6796 46.8936C11.7696 46.1556 10.9156 45.3536 10.1236 44.4936C9.48163 43.8016 8.88362 43.0716 8.32762 42.3076C7.98362 41.8376 7.65762 41.3536 7.34962 40.8596H23.1796C22.4656 42.0156 21.8396 43.2296 21.3076 44.4936ZM30.9776 52.1556C32.2476 45.0396 38.4836 39.6196 45.9596 39.6196C47.0656 39.6196 48.1456 39.7376 49.1856 39.9656C45.4676 46.5276 38.7896 51.1996 30.9776 52.1556ZM50.2916 37.7596C48.9056 37.4076 47.4536 37.2196 45.9596 37.2196C37.0956 37.2196 29.7376 43.7996 28.5196 52.3316C28.3476 52.3356 28.1736 52.3376 28.0016 52.3376C25.8756 52.3376 23.8136 52.0636 21.8476 51.5476C22.0636 49.9416 22.4396 48.3856 22.9576 46.8936C23.2396 46.0736 23.5676 45.2716 23.9356 44.4936C24.5356 43.2176 25.2456 42.0016 26.0516 40.8596C26.1676 40.6916 26.2876 40.5256 26.4116 40.3616C26.9016 39.7016 27.4236 39.0656 27.9776 38.4596C27.9816 38.4536 27.9876 38.4476 27.9936 38.4436C29.2296 37.0876 30.6196 35.8716 32.1336 34.8236C33.4156 33.9356 34.7856 33.1676 36.2276 32.5376C39.2096 31.2296 42.5016 30.5036 45.9596 30.5036C48.0856 30.5036 50.1476 30.7776 52.1136 31.2936C51.8076 33.5616 51.1856 35.7336 50.2916 37.7596ZM52.3196 28.8676C50.2816 28.3676 48.1496 28.1036 45.9596 28.1036C43.7696 28.1036 41.5236 28.3856 39.4336 28.9136V26.5296C40.2476 27.1296 41.2536 27.4856 42.3396 27.4856C42.8396 27.4856 43.3316 27.4096 43.8056 27.2636C44.3336 27.0996 44.6256 26.5376 44.4616 26.0116C44.2976 25.4836 43.7356 25.1896 43.2096 25.3556C42.9296 25.4436 42.6376 25.4876 42.3416 25.4876C40.7396 25.4876 39.4356 24.1836 39.4356 22.5816V22.3816C40.2496 22.9816 41.2556 23.3376 42.3416 23.3376C42.8396 23.3376 43.3336 23.2636 43.8056 23.1156C44.3336 22.9516 44.6256 22.3896 44.4616 21.8636C44.2976 21.3356 43.7356 21.0436 43.2096 21.2076C42.9296 21.2956 42.6376 21.3396 42.3416 21.3396C40.7396 21.3396 39.4356 20.0356 39.4356 18.4336V18.2336C40.2496 18.8336 41.2556 19.1896 42.3416 19.1896C42.8416 19.1896 43.3336 19.1156 43.8056 18.9676C44.3336 18.8036 44.6256 18.2416 44.4616 17.7156C44.2976 17.1896 43.7356 16.8956 43.2096 17.0596C42.9296 17.1476 42.6376 17.1916 42.3416 17.1916C40.7396 17.1916 39.4356 15.8876 39.4356 14.2856V14.0856C40.2496 14.6856 41.2556 15.0416 42.3416 15.0416C42.8416 15.0416 43.3336 14.9676 43.8056 14.8196C44.3336 14.6556 44.6256 14.0936 44.4616 13.5676C44.2976 13.0416 43.7356 12.7476 43.2096 12.9116C42.9296 12.9996 42.6376 13.0436 42.3416 13.0436C40.7396 13.0436 39.4356 11.7396 39.4356 10.1376C39.4356 9.58563 38.9876 9.13763 38.4356 9.13763C37.8836 9.13763 37.4356 9.58563 37.4356 10.1376C37.4356 11.7396 36.1316 13.0436 34.5296 13.0436C34.2336 13.0436 33.9416 12.9996 33.6616 12.9116C33.1356 12.7476 32.5736 13.0416 32.4096 13.5676C32.2456 14.0956 32.5396 14.6556 33.0656 14.8196C33.5376 14.9676 34.0316 15.0416 34.5296 15.0416C35.6176 15.0416 36.6216 14.6856 37.4356 14.0856V14.2856C37.4356 15.8876 36.1316 17.1916 34.5296 17.1916C34.2336 17.1916 33.9416 17.1476 33.6616 17.0596C33.1356 16.8956 32.5736 17.1896 32.4096 17.7156C32.2456 18.2436 32.5396 18.8036 33.0656 18.9676C33.5376 19.1156 34.0316 19.1896 34.5296 19.1896C35.6176 19.1896 36.6216 18.8336 37.4356 18.2336V18.4336C37.4356 20.0356 36.1316 21.3396 34.5296 21.3396C34.2336 21.3396 33.9416 21.2956 33.6616 21.2076C33.1336 21.0436 32.5736 21.3376 32.4096 21.8636C32.2456 22.3916 32.5396 22.9516 33.0656 23.1156C33.5396 23.2636 34.0316 23.3376 34.5296 23.3376C35.6176 23.3376 36.6216 22.9816 37.4356 22.3816V22.5816C37.4356 24.1836 36.1316 25.4876 34.5296 25.4876C34.2336 25.4876 33.9416 25.4436 33.6616 25.3556C33.1356 25.1896 32.5736 25.4836 32.4096 26.0116C32.2456 26.5396 32.5376 27.0996 33.0656 27.2636C33.5376 27.4116 34.0316 27.4856 34.5316 27.4856C35.6196 27.4856 36.6236 27.1296 37.4376 26.5296V29.5016C35.2936 30.2256 33.2696 31.2116 31.4076 32.4256C31.0836 32.6356 30.7636 32.8536 30.4496 33.0796L29.9856 32.4256L19.8036 18.0556L20.9916 16.3776C21.3756 15.8376 21.2476 15.0876 20.7056 14.7056C20.1656 14.3216 19.4156 14.4496 19.0316 14.9916L18.3316 15.9796L17.6296 14.9896C17.2456 14.4496 16.4976 14.3216 15.9556 14.7056C15.4156 15.0896 15.2876 15.8376 15.6696 16.3796L16.8576 18.0556L6.67563 32.4256H4.06962C3.82562 31.1096 3.68963 29.7576 3.66763 28.3756C3.46763 15.1716 13.6696 4.29762 26.8616 3.69362C40.7956 3.05562 52.3356 14.2076 52.3356 28.0036C52.3356 28.2936 52.3296 28.5816 52.3176 28.8696L52.3196 28.8676Z" fill="white"></path></g><path d="M78.2473 14.1473H77.8951C77.8094 13.8998 77.6714 13.6238 77.4858 13.3144C77.3002 13.0051 77.0527 12.7148 76.748 12.4387C76.4434 12.1627 76.0722 11.939 75.6391 11.7582C75.206 11.5773 74.6967 11.4869 74.1065 11.4869C73.5829 11.4869 73.1165 11.5678 72.7119 11.7248C72.3074 11.8867 71.9647 12.1103 71.6934 12.4007C71.4221 12.691 71.2127 13.0336 71.0747 13.4287C70.9366 13.8237 70.8652 14.2615 70.8652 14.7422C70.8652 15.5132 71.0842 16.2462 71.5173 16.9506C71.9504 17.6502 72.493 18.345 73.1451 19.0304C73.7971 19.7157 74.5015 20.401 75.2631 21.0864C76.0246 21.7717 76.729 22.4809 77.3811 23.2186C78.0331 23.9563 78.5757 24.7273 79.0088 25.5363C79.4419 26.3454 79.6609 27.2116 79.6609 28.1444C79.6609 28.8393 79.5419 29.5389 79.2992 30.2385C79.0564 30.9381 78.6852 31.5664 78.1854 32.1232C77.6809 32.68 77.0336 33.1322 76.2435 33.4796C75.4534 33.827 74.5111 34.0031 73.4211 34.0031C72.8119 34.0031 72.2312 33.946 71.6791 33.8366C71.127 33.7223 70.6177 33.5843 70.1561 33.4177C69.6896 33.2512 69.2756 33.0751 68.9043 32.8799C68.5331 32.6848 68.2332 32.5087 68 32.3517L68.3712 28.806H68.771C68.89 29.3105 69.0804 29.7864 69.347 30.2433C69.6135 30.7002 69.9419 31.1 70.3322 31.4474C70.7225 31.7948 71.1699 32.0709 71.6696 32.2803C72.1741 32.4897 72.7215 32.5944 73.3212 32.5944C73.8685 32.5944 74.354 32.5135 74.7871 32.3469C75.2202 32.1803 75.5915 31.9519 75.9008 31.6568C76.2102 31.3617 76.4482 31.0143 76.6148 30.605C76.7814 30.2005 76.8623 29.7531 76.8623 29.2724C76.8623 28.5966 76.7385 27.9779 76.491 27.402C76.2435 26.8309 75.9199 26.2883 75.5201 25.7743C75.1203 25.2603 74.6634 24.7653 74.1541 24.2799C73.6448 23.7992 73.126 23.3137 72.5882 22.8283C72.0551 22.3428 71.5316 21.8431 71.0223 21.3291C70.513 20.8151 70.0609 20.2678 69.6563 19.6824C69.2565 19.1018 68.9329 18.4735 68.6854 17.8072C68.4379 17.1409 68.3141 16.4032 68.3141 15.5989C68.3141 14.7565 68.476 13.9903 68.8044 13.3144C69.1328 12.6339 69.5659 12.0532 70.1037 11.5725C70.6415 11.0919 71.2555 10.7206 71.9409 10.4636C72.6263 10.2066 73.3307 10.0781 74.0589 10.0781C74.592 10.0781 75.087 10.121 75.5344 10.2066C75.9818 10.2923 76.3863 10.3922 76.748 10.5112C77.105 10.6302 77.4191 10.7444 77.6857 10.8634C77.9522 10.9824 78.1711 11.0776 78.3425 11.1537L78.2283 14.1521L78.2473 14.1473Z" fill="white"></path><path d="M103.137 33.4967V33.4348C103.156 33.3825 103.175 33.3015 103.185 33.1921C103.194 33.0874 103.199 32.9874 103.199 32.9018C103.199 32.5686 103.151 32.2021 103.061 31.8024C102.97 31.4026 102.794 30.9029 102.537 30.3032L100.595 25.9389C99.9956 25.9199 99.2008 25.9056 98.206 25.9056H92.5327C91.7473 25.9056 91.0382 25.9151 90.4052 25.9389L88.5584 30.1747C88.3966 30.5697 88.2253 31.0028 88.0444 31.474C87.8636 31.9451 87.7731 32.4211 87.7731 32.9018C87.7731 33.0398 87.7826 33.154 87.8064 33.2444C87.8255 33.3349 87.8493 33.3967 87.8683 33.43V33.4919H84.5938V33.43C84.7841 33.2254 85.0269 32.8637 85.3172 32.3449C85.6075 31.8262 85.9217 31.1741 86.2643 30.3936L95.4598 10H96.7449L105.46 29.6083C105.664 30.07 105.874 30.5174 106.093 30.9505C106.312 31.3835 106.516 31.7738 106.711 32.1117C106.902 32.4544 107.073 32.7447 107.225 32.9779C107.373 33.2159 107.478 33.3634 107.53 33.4253V33.4872H103.132L103.137 33.4967ZM92.7373 24.5254C93.3561 24.5254 93.9939 24.5254 94.6459 24.5159C95.298 24.5111 95.9357 24.5064 96.564 24.5016C97.1875 24.4968 97.792 24.4921 98.3679 24.4873C98.9438 24.4826 99.4673 24.473 99.9385 24.4635L95.4312 14.2739L91.0001 24.5254H92.7326H92.7373Z" fill="white"></path><path d="M116.506 27.2251C116.506 28.1341 116.52 28.9289 116.544 29.6095C116.573 30.2901 116.601 30.8755 116.639 31.3657C116.677 31.8559 116.725 32.2699 116.782 32.6031C116.839 32.9362 116.901 33.2123 116.968 33.436V33.4978H113.117V33.436C113.179 33.2123 113.241 32.9315 113.303 32.6031C113.36 32.2699 113.412 31.8606 113.455 31.3657C113.498 30.8755 113.531 30.2901 113.55 29.6095C113.569 28.9289 113.584 28.1341 113.584 27.2251V16.7784C113.584 15.8694 113.574 15.0746 113.55 14.394C113.527 13.7134 113.498 13.128 113.455 12.6283C113.412 12.1333 113.36 11.7145 113.303 11.3861C113.246 11.053 113.184 10.7769 113.117 10.5532V10.4914C114.007 10.4914 114.902 10.4914 115.811 10.4819C116.72 10.4771 117.601 10.4723 118.457 10.4676C119.314 10.4628 120.128 10.4533 120.894 10.4343C121.665 10.42 122.36 10.4009 122.979 10.3867C123.598 10.3724 124.121 10.3486 124.55 10.3248C124.978 10.2962 125.283 10.2677 125.463 10.2344L124.678 12.3665C124.326 12.2714 123.912 12.1857 123.441 12.1095C123.036 12.0477 122.541 11.9858 121.956 11.9239C121.37 11.8668 120.699 11.8335 119.942 11.8335C119.685 11.8335 119.366 11.843 118.981 11.8573C118.595 11.8716 118.215 11.8906 117.843 11.9144C117.415 11.9334 116.968 11.9572 116.496 11.9763V20.0814C117.596 20.0718 118.61 20.0385 119.528 19.9862C120.447 19.9338 121.242 19.8815 121.903 19.8244C122.674 19.7625 123.369 19.6863 123.988 19.6007L123.507 21.928C122.703 21.8328 121.894 21.7424 121.07 21.6567C120.366 21.5806 119.604 21.5139 118.791 21.4568C117.977 21.3997 117.21 21.3664 116.496 21.3664V27.2251H116.506Z" fill="white"></path><path d="M145.676 33.4967V33.4348C145.695 33.3825 145.714 33.3015 145.724 33.1921C145.733 33.0826 145.738 32.9874 145.738 32.9018C145.738 32.5686 145.69 32.2021 145.6 31.8024C145.509 31.4026 145.333 30.9029 145.076 30.3032L143.134 25.9389C142.535 25.9199 141.74 25.9056 140.745 25.9056H135.072C134.286 25.9056 133.577 25.9151 132.944 25.9389L131.098 30.1747C130.936 30.5697 130.764 31.0028 130.583 31.474C130.403 31.9451 130.312 32.4211 130.312 32.9018C130.312 33.0398 130.322 33.154 130.346 33.2444C130.365 33.3349 130.388 33.3967 130.407 33.43V33.4919H127.133V33.43C127.323 33.2254 127.566 32.8637 127.856 32.3449C128.147 31.8262 128.461 31.1741 128.803 30.3936L137.999 10H139.284L147.999 29.6083C148.203 30.07 148.413 30.5174 148.632 30.9505C148.851 31.3835 149.055 31.7738 149.25 32.1117C149.446 32.4544 149.612 32.7447 149.764 32.9779C149.912 33.2159 150.017 33.3634 150.069 33.4253V33.4872H145.671L145.676 33.4967ZM135.276 24.5254C135.895 24.5254 136.533 24.5254 137.185 24.5159C137.837 24.5111 138.475 24.5064 139.103 24.5016C139.727 24.4968 140.331 24.4921 140.907 24.4873C141.483 24.4826 142.011 24.473 142.478 24.4635L137.97 14.2739L133.539 24.5254H135.272H135.276Z" fill="white"></path><path d="M159.045 27.221C159.045 28.13 159.059 28.9248 159.083 29.6054C159.112 30.2859 159.14 30.8713 159.178 31.3615C159.216 31.8518 159.264 32.2658 159.321 32.599C159.378 32.9321 159.44 33.2082 159.507 33.4318V33.4937H155.656V33.4318C155.718 33.2082 155.78 32.9274 155.842 32.599C155.899 32.2658 155.947 31.8565 155.985 31.3615C156.023 30.8713 156.056 30.2859 156.08 29.6149C156.108 28.9391 156.118 28.1443 156.118 27.2257V16.779C156.118 15.87 156.104 15.0752 156.08 14.3946C156.051 13.7141 156.023 13.1287 155.985 12.6385C155.947 12.1482 155.899 11.7342 155.842 11.3963C155.785 11.0584 155.723 10.7776 155.656 10.5539V10.492L156.332 10.5539C156.537 10.5777 156.765 10.5872 157.013 10.5919C157.265 10.5967 157.522 10.6015 157.789 10.6015C158.207 10.6015 158.769 10.5491 159.483 10.4492C160.197 10.3492 161.101 10.2969 162.201 10.2969C163.229 10.2969 164.176 10.4349 165.047 10.7157C165.918 10.9917 166.675 11.401 167.317 11.9341C167.96 12.4671 168.459 13.1239 168.816 13.8997C169.173 14.6754 169.354 15.5559 169.354 16.5411C169.354 17.3121 169.254 18.026 169.059 18.6828C168.859 19.3395 168.583 19.9392 168.226 20.4723C167.869 21.0053 167.436 21.4812 166.936 21.8905C166.437 22.2998 165.87 22.6473 165.251 22.9233L170.882 30.8333C171.158 31.2283 171.42 31.571 171.658 31.8613C171.901 32.1516 172.129 32.3991 172.348 32.6085C172.567 32.8179 172.776 32.9892 172.981 33.1225C173.186 33.2557 173.395 33.3605 173.609 33.4366V33.4985H168.973C168.94 33.2938 168.835 33.0273 168.659 32.6894C168.483 32.3515 168.279 32.0183 168.041 31.6852L162.362 23.68C162.115 23.6991 161.872 23.7181 161.625 23.7371C161.377 23.7514 161.13 23.7609 160.873 23.7609C160.573 23.7609 160.273 23.7514 159.968 23.7276C159.664 23.7038 159.354 23.6705 159.045 23.6134V27.2257V27.221ZM159.045 22.3569C159.335 22.4188 159.626 22.4664 159.926 22.495C160.225 22.5235 160.516 22.533 160.792 22.533C161.596 22.533 162.324 22.4141 162.991 22.1713C163.652 21.9286 164.219 21.5621 164.685 21.0719C165.152 20.5817 165.513 19.9678 165.77 19.2348C166.027 18.5019 166.156 17.6452 166.156 16.6601C166.156 15.8557 166.065 15.1323 165.885 14.4803C165.704 13.8283 165.432 13.2762 165.075 12.8193C164.718 12.3624 164.266 12.0102 163.719 11.7627C163.172 11.5153 162.539 11.3868 161.81 11.3868C161.082 11.3868 160.482 11.4248 160.045 11.501C159.607 11.5771 159.274 11.658 159.05 11.7437V22.3665L159.045 22.3569Z" fill="white"></path><g opacity="0.7"><path d="M162.118 44.3867V39.6982H162.883V46.3135L158.112 41.3086V45.998H157.348V39.3828L162.118 44.3867Z" fill="white"></path><path fill-rule="evenodd" clip-rule="evenodd" d="M80.3291 39.6084C80.791 39.6084 81.2137 39.6924 81.5977 39.8604C81.9877 40.0224 82.3272 40.2499 82.6152 40.5439C82.9032 40.8319 83.1253 41.1744 83.2812 41.5703C83.4431 41.9601 83.5234 42.3859 83.5234 42.8477C83.5234 43.3036 83.4432 43.73 83.2812 44.126C83.1253 44.5219 82.9032 44.8672 82.6152 45.1611C82.3272 45.4491 81.9877 45.6767 81.5977 45.8447C81.2137 46.0067 80.791 46.0879 80.3291 46.0879C79.8731 46.0879 79.4496 46.0067 79.0596 45.8447C78.6698 45.6768 78.3309 45.449 78.043 45.1611C77.755 44.8671 77.5302 44.522 77.3682 44.126C77.2122 43.73 77.1338 43.3037 77.1338 42.8477C77.1338 42.3859 77.2122 41.9602 77.3682 41.5703C77.5302 41.1743 77.755 40.8319 78.043 40.5439C78.3309 40.2501 78.6698 40.0223 79.0596 39.8604C79.4496 39.6924 79.8731 39.6084 80.3291 39.6084ZM80.3291 40.373C79.8731 40.373 79.4645 40.4813 79.1045 40.6973C78.7447 40.9132 78.4599 41.2072 78.25 41.5791C78.0461 41.951 77.9444 42.3738 77.9443 42.8477C77.9443 43.3217 78.046 43.7452 78.25 44.1172C78.4599 44.489 78.7447 44.7831 79.1045 44.999C79.4645 45.215 79.8731 45.3232 80.3291 45.3232C80.791 45.3232 81.1988 45.215 81.5527 44.999C81.9126 44.7831 82.1945 44.4891 82.3984 44.1172C82.6084 43.7452 82.7139 43.3217 82.7139 42.8477C82.7138 42.3738 82.6084 41.951 82.3984 41.5791C82.1944 41.2072 81.9127 40.9132 81.5527 40.6973C81.1988 40.4813 80.791 40.3731 80.3291 40.373Z" fill="white"></path><path fill-rule="evenodd" clip-rule="evenodd" d="M126.427 39.6084C126.889 39.6084 127.312 39.6924 127.696 39.8604C128.086 40.0223 128.425 40.2501 128.713 40.5439C129.001 40.8319 129.223 41.1743 129.379 41.5703C129.541 41.9602 129.622 42.3859 129.622 42.8477C129.622 43.3037 129.541 43.73 129.379 44.126C129.223 44.522 129.001 44.8671 128.713 45.1611C128.425 45.449 128.086 45.6768 127.696 45.8447C127.312 46.0067 126.889 46.0879 126.427 46.0879C125.971 46.0878 125.548 46.0067 125.158 45.8447C124.768 45.6768 124.43 45.449 124.142 45.1611C123.854 44.8671 123.628 44.522 123.466 44.126C123.31 43.73 123.232 43.3036 123.232 42.8477C123.232 42.3859 123.31 41.9601 123.466 41.5703C123.628 41.1743 123.854 40.8319 124.142 40.5439C124.43 40.2501 124.768 40.0223 125.158 39.8604C125.548 39.6924 125.971 39.6084 126.427 39.6084ZM126.427 40.373C125.971 40.3731 125.563 40.4813 125.203 40.6973C124.843 40.9132 124.559 41.2072 124.349 41.5791C124.145 41.951 124.042 42.3738 124.042 42.8477C124.042 43.3217 124.145 43.7452 124.349 44.1172C124.559 44.489 124.843 44.7831 125.203 44.999C125.563 45.215 125.971 45.3232 126.427 45.3232C126.889 45.3232 127.297 45.215 127.651 44.999C128.011 44.7831 128.293 44.4891 128.497 44.1172C128.707 43.7452 128.812 43.3217 128.812 42.8477C128.812 42.3738 128.707 41.951 128.497 41.5791C128.293 41.2072 128.011 40.9133 127.651 40.6973C127.297 40.4813 126.889 40.373 126.427 40.373Z" fill="white"></path><path fill-rule="evenodd" clip-rule="evenodd" d="M136.598 39.6084C137.06 39.6084 137.482 39.6924 137.866 39.8604C138.256 40.0224 138.596 40.2499 138.884 40.5439C139.172 40.8319 139.394 41.1744 139.55 41.5703C139.712 41.9601 139.793 42.3859 139.793 42.8477C139.793 43.3036 139.712 43.73 139.55 44.126C139.394 44.5219 139.172 44.8672 138.884 45.1611C138.596 45.4491 138.256 45.6767 137.866 45.8447C137.482 46.0067 137.06 46.0879 136.598 46.0879C136.142 46.0879 135.718 46.0067 135.328 45.8447C134.938 45.6768 134.599 45.449 134.312 45.1611C134.024 44.8671 133.799 44.522 133.637 44.126C133.481 43.73 133.402 43.3037 133.402 42.8477C133.402 42.3859 133.481 41.9602 133.637 41.5703C133.799 41.1743 134.024 40.8319 134.312 40.5439C134.599 40.2501 134.938 40.0223 135.328 39.8604C135.718 39.6924 136.142 39.6084 136.598 39.6084ZM136.598 40.373C136.142 40.373 135.733 40.4813 135.373 40.6973C135.013 40.9132 134.728 41.2072 134.519 41.5791C134.315 41.951 134.213 42.3738 134.213 42.8477C134.213 43.3217 134.315 43.7452 134.519 44.1172C134.728 44.489 135.013 44.7831 135.373 44.999C135.733 45.215 136.142 45.3232 136.598 45.3232C137.06 45.3232 137.467 45.2149 137.821 44.999C138.181 44.783 138.464 44.4892 138.668 44.1172C138.878 43.7452 138.982 43.3216 138.982 42.8477C138.982 42.3739 138.878 41.9509 138.668 41.5791C138.464 41.2071 138.181 40.9133 137.821 40.6973C137.467 40.4813 137.06 40.3731 136.598 40.373Z" fill="white"></path><path d="M170.222 39.6084C170.611 39.6084 170.968 39.6589 171.292 39.7607C171.622 39.8627 171.916 40.0131 172.174 40.2109C172.438 40.4089 172.66 40.6553 172.84 40.9492L172.3 41.4443C172.102 41.1084 171.826 40.8471 171.473 40.6611C171.119 40.4692 170.702 40.3731 170.222 40.373C169.778 40.373 169.376 40.4785 169.016 40.6885C168.656 40.8985 168.367 41.1895 168.151 41.5615C167.942 41.9274 167.836 42.356 167.836 42.8477C167.836 43.3336 167.941 43.7628 168.151 44.1348C168.367 44.5068 168.656 44.7978 169.016 45.0078C169.376 45.2178 169.778 45.3232 170.222 45.3232C170.534 45.3232 170.813 45.2784 171.059 45.1885C171.31 45.0925 171.526 44.9599 171.706 44.792C171.886 44.624 172.033 44.4318 172.147 44.2158C172.267 44 172.354 43.7692 172.408 43.5234H170.312V42.8027H173.236C173.236 43.2406 173.17 43.6578 173.038 44.0537C172.906 44.4436 172.711 44.7917 172.453 45.0977C172.195 45.4037 171.877 45.6471 171.499 45.8271C171.127 46.001 170.701 46.0878 170.222 46.0879C169.766 46.0879 169.342 46.0105 168.952 45.8545C168.562 45.6925 168.224 45.4667 167.936 45.1787C167.648 44.8849 167.423 44.5403 167.261 44.1445C167.105 43.7485 167.026 43.3157 167.026 42.8477C167.026 42.3798 167.105 41.9476 167.261 41.5518C167.423 41.1559 167.648 40.8143 167.936 40.5264C168.224 40.2324 168.562 40.0066 168.952 39.8506C169.342 39.6886 169.766 39.6084 170.222 39.6084Z" fill="white"></path><path d="M68.7656 42.2178H72.2305V39.6982H72.9951V45.998H72.2305V42.9385H68.7656V45.998H68V39.6982H68.7656V42.2178Z" fill="white"></path><path d="M90.7666 40.418H89.1465V45.998H88.3818V40.418H86.7617V39.6982H90.7666V40.418Z" fill="white"></path><path d="M98.2354 39.6982V40.418H95.4004V42.2178H98.0557V42.9385H95.4004V45.2783H98.2354V45.998H94.6357V39.6982H98.2354Z" fill="white"></path><path d="M103.408 45.2783H105.884V45.998H102.644V39.6982H103.408V45.2783Z" fill="white"></path><path fill-rule="evenodd" clip-rule="evenodd" d="M117.134 39.6982C117.512 39.6983 117.838 39.7552 118.114 39.8691C118.396 39.9831 118.615 40.1568 118.771 40.3906C118.927 40.6186 119.006 40.9134 119.006 41.2734C119.006 41.5673 118.927 41.8194 118.771 42.0293C118.615 42.2392 118.396 42.3979 118.114 42.5059C118.061 42.5267 118.005 42.5437 117.948 42.5605C117.989 42.5691 118.03 42.5768 118.069 42.5869C118.327 42.6529 118.552 42.7548 118.744 42.8926C118.942 43.0246 119.095 43.1963 119.203 43.4062C119.311 43.6163 119.365 43.8653 119.365 44.1533C119.365 44.5672 119.269 44.9125 119.077 45.1885C118.891 45.4582 118.636 45.6619 118.312 45.7998C117.995 45.9318 117.632 45.998 117.224 45.998H115.514V39.6982H117.134ZM116.278 45.3232H117.224C117.494 45.3232 117.731 45.2747 117.935 45.1787C118.145 45.0827 118.307 44.9446 118.421 44.7646C118.541 44.5848 118.601 44.366 118.601 44.1084C118.601 43.9164 118.568 43.7447 118.502 43.5947C118.436 43.4448 118.34 43.3188 118.214 43.2168C118.094 43.1148 117.949 43.0402 117.781 42.9922C117.613 42.9382 117.428 42.9111 117.224 42.9111H116.278V45.3232ZM116.278 42.2451H117.134C117.344 42.2451 117.532 42.2086 117.7 42.1367C117.868 42.0647 118.001 41.9602 118.097 41.8223C118.193 41.6843 118.24 41.5162 118.24 41.3184C118.24 41.0184 118.136 40.787 117.926 40.625C117.716 40.457 117.452 40.3731 117.134 40.373H116.278V42.2451Z" fill="white"></path><path d="M144.698 42.4102L147.173 39.6982H148.118L145.391 42.6504L148.253 45.998H147.308L144.698 42.9424V45.998H143.933V39.6982H144.698V42.4102Z" fill="white"></path><path d="M152.847 45.998H152.082V39.6982H152.847V45.998Z" fill="white"></path></g><defs><clipPath id="clip0_10591_1983"><rect width="56" height="56" fill="white"></rect></clipPath></defs></svg>